<?xml version="1.0" encoding="utf-8"?>
<!-- Generator: Adobe Illustrator 19.2.1, SVG Export Plug-In . SVG Version: 6.00 Build 0)  -->
<svg version="1.1" xmlns="http://www.w3.org/2000/svg" xmlns:xlink="http://www.w3.org/1999/xlink" x="0px" y="0px"
	 viewBox="0 0 480 480" style="enable-background:new 0 0 480 480;" xml:space="preserve">
<style type="text/css">
	.alianza-icon{fill:url(#SVGID_1_);}
</style>
<g id="Capa_3">
</g>
<g id="Capa_4">
	<linearGradient id="SVGID_1_" gradientUnits="userSpaceOnUse" x1="24.25" y1="245.3375" x2="464.4241" y2="245.3375">
		<stop  offset="0" style="stop-color:#36A0D7"/>
		<stop  offset="0.2" style="stop-color:#1C2380"/>
		<stop  offset="0.4" style="stop-color:#BB127E"/>
		<stop  offset="0.6" style="stop-color:#C13125"/>
		<stop  offset="0.8" style="stop-color:#FAEC40"/>
		<stop  offset="1" style="stop-color:#38924F"/>
	</linearGradient>
	<path class="alianza-icon" d="M244.3,25.3c-121.6,0-220.1,98.5-220.1,220.1s98.5,220.1,220.1,220.1s220.1-98.5,220.1-220.1
		S365.9,25.3,244.3,25.3z M434.4,245.3c0,41.7-13.5,80.3-36.3,111.7c-3.1,0.7-6.5,1.1-10.2,1.1c-18.4,0-32.5-18.9-42.2-56.8
		c2.7-6.2,7.6-22.9,14.8-50.1l32.4-124.3C419,159.4,434.4,200.6,434.4,245.3z M54.2,245.3c0-105,85.1-190.1,190.1-190.1
		c35.8,0,69.2,9.9,97.8,27l-5.6,25.7h-0.1l-22.1,87.9c-12.3-34-26.4-58.6-42.3-73.5c-16-15.1-36.4-22.6-61.2-22.6
		c-35.2,0-65.4,13.2-90.6,39.6C95,165.7,82.5,202.6,82.5,250c0,48.2,11.5,85.3,34.4,111.2c23,25.9,53.8,38.8,92.8,38.8
		c56.9,0,98-22.6,123.1-67.7c7.2,27.3,14,45.5,20.2,54.4c2.4,3.4,5.3,6.2,8.7,8.3c-32.3,25.4-73.1,40.5-117.4,40.5
		C139.3,435.4,54.2,350.3,54.2,245.3z M304.4,229.3l-9.8,41.5c-17.6,73.9-44.7,110.8-81.3,110.8c-42.2,0-63.3-41.8-63.3-125.5
		c0-88.1,22-132.2,66.2-132.2c19.5,0,36.3,9.3,50.2,27.9C280.5,170.4,293.2,196.2,304.4,229.3z"/>
</g>
<g id="meta">
</g>
</svg>
